<?xml version="1.0" encoding="UTF-8" standalone="no"?>
<!DOCTYPE svg PUBLIC "-//W3C//DTD SVG 1.1//EN"
 "http://www.w3.org/Graphics/SVG/1.1/DTD/svg11.dtd">
<!-- Generated by graphviz version 2.40.1 (20161225.0304)
 -->
<!-- Title: models_diagram Pages: 1 -->
<svg width="776pt" height="842pt"
 viewBox="0.00 0.00 776.00 842.00" xmlns="http://www.w3.org/2000/svg" xmlns:xlink="http://www.w3.org/1999/xlink">
<g id="graph0" class="graph" transform="scale(1 1) rotate(0) translate(36 806)">
<title>models_diagram</title>
<polygon fill="#ffffff" stroke="transparent" points="-36,36 -36,-806 740,-806 740,36 -36,36"/>
<!-- Capital -->
<g id="node1" class="node">
<title>Capital</title>
<polygon fill="#add8e6" stroke="transparent" points="221,-242 221,-264 340,-264 340,-242 221,-242"/>
<polygon fill="none" stroke="#000000" points="221,-242 221,-264 340,-264 340,-242 221,-242"/>
<text text-anchor="start" x="266.058" y="-251" font-family="Times,serif" font-weight="bold" font-size="10.00" fill="#000000">Capital</text>
<polygon fill="none" stroke="#000000" points="221,-220 221,-242 340,-242 340,-220 221,-220"/>
<text text-anchor="start" x="226" y="-229" font-family="Times,serif" text-decoration="underline" font-size="10.00" fill="#000000">id</text>
<text text-anchor="start" x="233.779" y="-229" font-family="Times,serif" font-size="10.00" fill="#000000">: NUMBER</text>
<polygon fill="none" stroke="#000000" points="221,-198 221,-220 340,-220 340,-198 221,-198"/>
<text text-anchor="start" x="226" y="-206" font-family="Times,serif" font-size="10.00" fill="#000000">amount: NUMBER</text>
<polygon fill="none" stroke="#000000" points="221,-176 221,-198 340,-198 340,-176 221,-176"/>
<text text-anchor="start" x="226" y="-184" font-family="Times,serif" font-size="10.00" fill="#000000">actualActive: NUMBER</text>
<polygon fill="none" stroke="#000000" points="221,-154 221,-176 340,-176 340,-154 221,-154"/>
<text text-anchor="start" x="225.928" y="-162" font-family="Times,serif" font-size="10.00" fill="#000000">previousActive: NUMBER</text>
<polygon fill="none" stroke="#000000" points="221,-132 221,-154 340,-154 340,-132 221,-132"/>
<text text-anchor="start" x="226" y="-140" font-family="Times,serif" font-size="10.00" fill="#000000">actualPasive: NUMBER</text>
<polygon fill="none" stroke="#000000" points="221,-110 221,-132 340,-132 340,-110 221,-110"/>
<text text-anchor="start" x="226" y="-118" font-family="Times,serif" font-size="10.00" fill="#000000">previousPasive: NUMBER</text>
<polygon fill="none" stroke="#000000" points="221,-88 221,-110 340,-110 340,-88 221,-88"/>
<text text-anchor="start" x="226" y="-96" font-family="Times,serif" font-size="10.00" fill="#000000">transactionId: NUMBER</text>
<polygon fill="none" stroke="#000000" points="221,-66 221,-88 340,-88 340,-66 221,-66"/>
<text text-anchor="start" x="226" y="-74" font-family="Times,serif" font-size="10.00" fill="#000000">holder: NUMBER</text>
</g>
<!-- Password -->
<g id="node2" class="node">
<title>Password</title>
<polygon fill="#add8e6" stroke="transparent" points="595,-330 595,-352 690,-352 690,-330 595,-330"/>
<polygon fill="none" stroke="#000000" points="595,-330 595,-352 690,-352 690,-330 595,-330"/>
<text text-anchor="start" x="623.338" y="-339" font-family="Times,serif" font-weight="bold" font-size="10.00" fill="#000000">Password</text>
<polygon fill="none" stroke="#000000" points="595,-308 595,-330 690,-330 690,-308 595,-308"/>
<text text-anchor="start" x="600" y="-317" font-family="Times,serif" text-decoration="underline" font-size="10.00" fill="#000000">id</text>
<text text-anchor="start" x="607.779" y="-317" font-family="Times,serif" font-size="10.00" fill="#000000">: NUMBER</text>
<polygon fill="none" stroke="#000000" points="595,-286 595,-308 690,-308 690,-286 595,-286"/>
<text text-anchor="start" x="600" y="-294" font-family="Times,serif" font-size="10.00" fill="#000000">userId: NUMBER</text>
<polygon fill="none" stroke="#000000" points="595,-264 595,-286 690,-286 690,-264 595,-264"/>
<text text-anchor="start" x="600" y="-272" font-family="Times,serif" font-size="10.00" fill="#000000">createdAt: DATE</text>
<polygon fill="none" stroke="#000000" points="595,-242 595,-264 690,-264 690,-242 595,-242"/>
<text text-anchor="start" x="599.591" y="-250" font-family="Times,serif" font-size="10.00" fill="#000000">password: NUMBER</text>
</g>
<!-- Loan -->
<g id="node3" class="node">
<title>Loan</title>
<polygon fill="#add8e6" stroke="transparent" points="45,-418 45,-440 178,-440 178,-418 45,-418"/>
<polygon fill="none" stroke="#000000" points="45,-418 45,-440 178,-440 178,-418 45,-418"/>
<text text-anchor="start" x="101.226" y="-427" font-family="Times,serif" font-weight="bold" font-size="10.00" fill="#000000">Loan</text>
<polygon fill="none" stroke="#000000" points="45,-396 45,-418 178,-418 178,-396 45,-396"/>
<text text-anchor="start" x="50" y="-405" font-family="Times,serif" text-decoration="underline" font-size="10.00" fill="#000000">id</text>
<text text-anchor="start" x="57.779" y="-405" font-family="Times,serif" font-size="10.00" fill="#000000">: NUMBER</text>
<polygon fill="none" stroke="#000000" points="45,-374 45,-396 178,-396 178,-374 45,-374"/>
<text text-anchor="start" x="50" y="-382" font-family="Times,serif" font-size="10.00" fill="#000000">type: NUMBER</text>
<polygon fill="none" stroke="#000000" points="45,-352 45,-374 178,-374 178,-352 45,-352"/>
<text text-anchor="start" x="50" y="-360" font-family="Times,serif" font-size="10.00" fill="#000000">initialDate: DATE</text>
<polygon fill="none" stroke="#000000" points="45,-330 45,-352 178,-352 178,-330 45,-330"/>
<text text-anchor="start" x="50" y="-338" font-family="Times,serif" font-size="10.00" fill="#000000">initialMonth: ENUM</text>
<polygon fill="none" stroke="#000000" points="45,-308 45,-330 178,-330 178,-308 45,-308"/>
<text text-anchor="start" x="49.9805" y="-316" font-family="Times,serif" font-size="10.00" fill="#000000">instalmentsInTotal: NUMBER</text>
<polygon fill="none" stroke="#000000" points="45,-286 45,-308 178,-308 178,-286 45,-286"/>
<text text-anchor="start" x="50" y="-294" font-family="Times,serif" font-size="10.00" fill="#000000">payedInstalments: NUMBER</text>
<polygon fill="none" stroke="#000000" points="45,-264 45,-286 178,-286 178,-264 45,-264"/>
<text text-anchor="start" x="50" y="-272" font-family="Times,serif" font-size="10.00" fill="#000000">debtorId: NUMBER</text>
<polygon fill="none" stroke="#000000" points="45,-242 45,-264 178,-264 178,-242 45,-242"/>
<text text-anchor="start" x="50" y="-250" font-family="Times,serif" font-size="10.00" fill="#000000">status: NUMBER</text>
<polygon fill="none" stroke="#000000" points="45,-220 45,-242 178,-242 178,-220 45,-220"/>
<text text-anchor="start" x="50" y="-228" font-family="Times,serif" font-size="10.00" fill="#000000">amount: NUMBER</text>
<polygon fill="none" stroke="#000000" points="45,-198 45,-220 178,-220 178,-198 45,-198"/>
<text text-anchor="start" x="50" y="-206" font-family="Times,serif" font-size="10.00" fill="#000000">registerDate: DATE</text>
<polygon fill="none" stroke="#000000" points="45,-176 45,-198 178,-198 178,-176 45,-176"/>
<text text-anchor="start" x="50" y="-184" font-family="Times,serif" font-size="10.00" fill="#000000">last_update: DATE</text>
<polygon fill="none" stroke="#000000" points="45,-154 45,-176 178,-176 178,-154 45,-154"/>
<text text-anchor="start" x="50" y="-162" font-family="Times,serif" font-size="10.00" fill="#000000">payed: NUMBER</text>
</g>
<!-- Instalment -->
<g id="node10" class="node">
<title>Instalment</title>
<polygon fill="#add8e6" stroke="transparent" points="425,-440 425,-462 557,-462 557,-440 425,-440"/>
<polygon fill="none" stroke="#000000" points="425,-440 425,-462 557,-462 557,-440 425,-440"/>
<text text-anchor="start" x="469.894" y="-449" font-family="Times,serif" font-weight="bold" font-size="10.00" fill="#000000">Instalment</text>
<polygon fill="none" stroke="#000000" points="425,-418 425,-440 557,-440 557,-418 425,-418"/>
<text text-anchor="start" x="430" y="-427" font-family="Times,serif" text-decoration="underline" font-size="10.00" fill="#000000">id</text>
<text text-anchor="start" x="437.779" y="-427" font-family="Times,serif" font-size="10.00" fill="#000000">: NUMBER</text>
<polygon fill="none" stroke="#000000" points="425,-396 425,-418 557,-418 557,-396 425,-396"/>
<text text-anchor="start" x="430" y="-405" font-family="Times,serif" font-style="italic" text-decoration="underline" font-size="10.00" fill="#000000">loanId</text>
<text text-anchor="start" x="455.547" y="-405" font-family="Times,serif" font-size="10.00" fill="#000000">: NUMBER</text>
<polygon fill="none" stroke="#000000" points="425,-374 425,-396 557,-396 557,-374 425,-374"/>
<text text-anchor="start" x="429.7595" y="-382" font-family="Times,serif" font-size="10.00" fill="#000000">instalmentNumber: NUMBER</text>
<polygon fill="none" stroke="#000000" points="425,-352 425,-374 557,-374 557,-352 425,-352"/>
<text text-anchor="start" x="430" y="-360" font-family="Times,serif" font-size="10.00" fill="#000000">futureDebt: NUMBER</text>
<polygon fill="none" stroke="#000000" points="425,-330 425,-352 557,-352 557,-330 425,-330"/>
<text text-anchor="start" x="430" y="-338" font-family="Times,serif" font-size="10.00" fill="#000000">validFrom: DATE</text>
<polygon fill="none" stroke="#000000" points="425,-308 425,-330 557,-330 557,-308 425,-308"/>
<text text-anchor="start" x="430" y="-316" font-family="Times,serif" font-size="10.00" fill="#000000">validTill: DATE</text>
<polygon fill="none" stroke="#000000" points="425,-286 425,-308 557,-308 557,-286 425,-286"/>
<text text-anchor="start" x="430" y="-294" font-family="Times,serif" font-size="10.00" fill="#000000">amount: NUMBER</text>
<polygon fill="none" stroke="#000000" points="425,-264 425,-286 557,-286 557,-264 425,-264"/>
<text text-anchor="start" x="430" y="-272" font-family="Times,serif" font-size="10.00" fill="#000000">interest: NUMBER</text>
<polygon fill="none" stroke="#000000" points="425,-242 425,-264 557,-264 557,-242 425,-242"/>
<text text-anchor="start" x="430" y="-250" font-family="Times,serif" font-size="10.00" fill="#000000">penalty: NUMBER</text>
<polygon fill="none" stroke="#000000" points="425,-220 425,-242 557,-242 557,-220 425,-220"/>
<text text-anchor="start" x="430" y="-228" font-family="Times,serif" font-size="10.00" fill="#000000">payedAmount: NUMBER</text>
<polygon fill="none" stroke="#000000" points="425,-198 425,-220 557,-220 557,-198 425,-198"/>
<text text-anchor="start" x="430" y="-206" font-family="Times,serif" font-size="10.00" fill="#000000">inDebt: NUMBER</text>
<polygon fill="none" stroke="#000000" points="425,-176 425,-198 557,-198 557,-176 425,-176"/>
<text text-anchor="start" x="430" y="-184" font-family="Times,serif" font-size="10.00" fill="#000000">paymentDate: DATE</text>
<polygon fill="none" stroke="#000000" points="425,-154 425,-176 557,-176 557,-154 425,-154"/>
<text text-anchor="start" x="430" y="-162" font-family="Times,serif" font-size="10.00" fill="#000000">status: STRING</text>
<polygon fill="none" stroke="#000000" points="425,-132 425,-154 557,-154 557,-132 425,-132"/>
<text text-anchor="start" x="430" y="-140" font-family="Times,serif" font-size="10.00" fill="#000000">transactionId: NUMBER</text>
</g>
<!-- Loan&#45;&gt;Instalment -->
<g id="edge1" class="edge">
<title>Loan&#45;&gt;Instalment</title>
<path fill="none" stroke="#000000" stroke-width=".75" d="M177.6258,-297C247.1233,-297 355.4196,-297 424.7696,-297"/>
</g>
<!-- CosignerRel -->
<g id="node4" class="node">
<title>CosignerRel</title>
<polygon fill="#add8e6" stroke="transparent" points="66,-748 66,-770 200,-770 200,-748 66,-748"/>
<polygon fill="none" stroke="#000000" points="66,-748 66,-770 200,-770 200,-748 66,-748"/>
<text text-anchor="start" x="108.004" y="-757" font-family="Times,serif" font-weight="bold" font-size="10.00" fill="#000000">CosignerRel</text>
<polygon fill="none" stroke="#000000" points="66,-726 66,-748 200,-748 200,-726 66,-726"/>
<text text-anchor="start" x="71" y="-735" font-family="Times,serif" text-decoration="underline" font-size="10.00" fill="#000000">id</text>
<text text-anchor="start" x="78.779" y="-735" font-family="Times,serif" font-size="10.00" fill="#000000">: NUMBER</text>
<polygon fill="none" stroke="#000000" points="66,-704 66,-726 200,-726 200,-704 66,-704"/>
<text text-anchor="start" x="71" y="-712" font-family="Times,serif" font-size="10.00" fill="#000000">loanId: NUMBER</text>
<polygon fill="none" stroke="#000000" points="66,-682 66,-704 200,-704 200,-682 66,-682"/>
<text text-anchor="start" x="71" y="-690" font-family="Times,serif" font-size="10.00" fill="#000000">cosignerId: NUMBER</text>
<polygon fill="none" stroke="#000000" points="66,-660 66,-682 200,-682 200,-660 66,-660"/>
<text text-anchor="start" x="70.653" y="-668" font-family="Times,serif" font-size="10.00" fill="#000000">guaranteedAmount: NUMBER</text>
<polygon fill="none" stroke="#000000" points="66,-638 66,-660 200,-660 200,-638 66,-638"/>
<text text-anchor="start" x="71" y="-646" font-family="Times,serif" font-size="10.00" fill="#000000">guaranteedPayed: NUMBER</text>
<polygon fill="none" stroke="#000000" points="66,-616 66,-638 200,-638 200,-616 66,-616"/>
<text text-anchor="start" x="71" y="-624" font-family="Times,serif" font-size="10.00" fill="#000000">index: NUMBER</text>
<polygon fill="none" stroke="#000000" points="66,-594 66,-616 200,-616 200,-594 66,-594"/>
<text text-anchor="start" x="71" y="-602" font-family="Times,serif" font-size="10.00" fill="#000000">status: NUMBER</text>
<polygon fill="none" stroke="#000000" points="66,-572 66,-594 200,-594 200,-572 66,-572"/>
<text text-anchor="start" x="71" y="-580" font-family="Times,serif" font-size="10.00" fill="#000000">lastUpdate: DATE</text>
<polygon fill="none" stroke="#000000" points="66,-550 66,-572 200,-572 200,-550 66,-550"/>
<text text-anchor="start" x="71" y="-558" font-family="Times,serif" font-size="10.00" fill="#000000">rol: NUMBER</text>
</g>
<!-- Transaction -->
<g id="node5" class="node">
<title>Transaction</title>
<polygon fill="#add8e6" stroke="transparent" points="506,-726 506,-748 612,-748 612,-726 506,-726"/>
<polygon fill="none" stroke="#000000" points="506,-726 506,-748 612,-748 612,-726 506,-726"/>
<text text-anchor="start" x="535.399" y="-735" font-family="Times,serif" font-weight="bold" font-size="10.00" fill="#000000">Transaction</text>
<polygon fill="none" stroke="#000000" points="506,-704 506,-726 612,-726 612,-704 506,-704"/>
<text text-anchor="start" x="511" y="-713" font-family="Times,serif" text-decoration="underline" font-size="10.00" fill="#000000">id</text>
<text text-anchor="start" x="518.779" y="-713" font-family="Times,serif" font-size="10.00" fill="#000000">: NUMBER</text>
<polygon fill="none" stroke="#000000" points="506,-682 506,-704 612,-704 612,-682 506,-682"/>
<text text-anchor="start" x="511" y="-690" font-family="Times,serif" font-size="10.00" fill="#000000">transactionDate: DATE</text>
<polygon fill="none" stroke="#000000" points="506,-660 506,-682 612,-682 612,-660 506,-660"/>
<text text-anchor="start" x="510.824" y="-668" font-family="Times,serif" font-size="10.00" fill="#000000">registrationDate: DATE</text>
<polygon fill="none" stroke="#000000" points="506,-638 506,-660 612,-660 612,-638 506,-638"/>
<text text-anchor="start" x="511" y="-646" font-family="Times,serif" font-size="10.00" fill="#000000">amount: NUMBER</text>
<polygon fill="none" stroke="#000000" points="506,-616 506,-638 612,-638 612,-616 506,-616"/>
<text text-anchor="start" x="511" y="-624" font-family="Times,serif" font-size="10.00" fill="#000000">issuer: NUMBER</text>
<polygon fill="none" stroke="#000000" points="506,-594 506,-616 612,-616 612,-594 506,-594"/>
<text text-anchor="start" x="511" y="-602" font-family="Times,serif" font-size="10.00" fill="#000000">issuerRol: STRING</text>
<polygon fill="none" stroke="#000000" points="506,-572 506,-594 612,-594 612,-572 506,-572"/>
<text text-anchor="start" x="511" y="-580" font-family="Times,serif" font-size="10.00" fill="#000000">receiver: NUMBER</text>
<polygon fill="none" stroke="#000000" points="506,-550 506,-572 612,-572 612,-550 506,-550"/>
<text text-anchor="start" x="511" y="-558" font-family="Times,serif" font-size="10.00" fill="#000000">status: STRING</text>
<polygon fill="none" stroke="#000000" points="506,-528 506,-550 612,-550 612,-528 506,-528"/>
<text text-anchor="start" x="511" y="-536" font-family="Times,serif" font-size="10.00" fill="#000000">receipt: STRING</text>
<polygon fill="none" stroke="#000000" points="506,-506 506,-528 612,-528 612,-506 506,-506"/>
<text text-anchor="start" x="511" y="-514" font-family="Times,serif" font-size="10.00" fill="#000000">comment: TEXT</text>
</g>
<!-- TransSuscription -->
<g id="node6" class="node">
<title>TransSuscription</title>
<polygon fill="#add8e6" stroke="transparent" points="374,-66 374,-88 484,-88 484,-66 374,-66"/>
<polygon fill="none" stroke="#000000" points="374,-66 374,-88 484,-88 484,-66 374,-66"/>
<text text-anchor="start" x="394.8405" y="-75" font-family="Times,serif" font-weight="bold" font-size="10.00" fill="#000000">TransSuscription</text>
<polygon fill="none" stroke="#000000" points="374,-44 374,-66 484,-66 484,-44 374,-44"/>
<text text-anchor="start" x="379" y="-53" font-family="Times,serif" text-decoration="underline" font-size="10.00" fill="#000000">id</text>
<text text-anchor="start" x="386.779" y="-53" font-family="Times,serif" font-size="10.00" fill="#000000">: NUMBER</text>
<polygon fill="none" stroke="#000000" points="374,-22 374,-44 484,-44 484,-22 374,-22"/>
<text text-anchor="start" x="378.873" y="-30" font-family="Times,serif" font-size="10.00" fill="#000000">transactionId: NUMBER</text>
<polygon fill="none" stroke="#000000" points="374,0 374,-22 484,-22 484,0 374,0"/>
<text text-anchor="start" x="379" y="-8" font-family="Times,serif" font-size="10.00" fill="#000000">amount: NUMBER</text>
</g>
<!-- TransInstalment -->
<g id="node7" class="node">
<title>TransInstalment</title>
<polygon fill="#add8e6" stroke="transparent" points="594,-176 594,-198 704,-198 704,-176 594,-176"/>
<polygon fill="none" stroke="#000000" points="594,-176 594,-198 704,-198 704,-176 594,-176"/>
<text text-anchor="start" x="616.511" y="-185" font-family="Times,serif" font-weight="bold" font-size="10.00" fill="#000000">TransInstalment</text>
<polygon fill="none" stroke="#000000" points="594,-154 594,-176 704,-176 704,-154 594,-154"/>
<text text-anchor="start" x="599" y="-163" font-family="Times,serif" text-decoration="underline" font-size="10.00" fill="#000000">id</text>
<text text-anchor="start" x="606.779" y="-163" font-family="Times,serif" font-size="10.00" fill="#000000">: NUMBER</text>
<polygon fill="none" stroke="#000000" points="594,-132 594,-154 704,-154 704,-132 594,-132"/>
<text text-anchor="start" x="598.873" y="-140" font-family="Times,serif" font-size="10.00" fill="#000000">transactionId: NUMBER</text>
<polygon fill="none" stroke="#000000" points="594,-110 594,-132 704,-132 704,-110 594,-110"/>
<text text-anchor="start" x="599" y="-118" font-family="Times,serif" font-size="10.00" fill="#000000">instalmentId: NUMBER</text>
<polygon fill="none" stroke="#000000" points="594,-88 594,-110 704,-110 704,-88 594,-88"/>
<text text-anchor="start" x="599" y="-96" font-family="Times,serif" font-size="10.00" fill="#000000">totalAmount: NUMBER</text>
<polygon fill="none" stroke="#000000" points="594,-66 594,-88 704,-88 704,-66 594,-66"/>
<text text-anchor="start" x="599" y="-74" font-family="Times,serif" font-size="10.00" fill="#000000">amount: NUMBER</text>
<polygon fill="none" stroke="#000000" points="594,-44 594,-66 704,-66 704,-44 594,-44"/>
<text text-anchor="start" x="599" y="-52" font-family="Times,serif" font-size="10.00" fill="#000000">interest: NUMBER</text>
<polygon fill="none" stroke="#000000" points="594,-22 594,-44 704,-44 704,-22 594,-22"/>
<text text-anchor="start" x="599" y="-30" font-family="Times,serif" font-size="10.00" fill="#000000">penalty: NUMBER</text>
</g>
<!-- User -->
<g id="node8" class="node">
<title>User</title>
<polygon fill="#add8e6" stroke="transparent" points="242,-660 242,-682 382,-682 382,-660 242,-660"/>
<polygon fill="none" stroke="#000000" points="242,-660 242,-682 382,-682 382,-660 242,-660"/>
<text text-anchor="start" x="302.562" y="-669" font-family="Times,serif" font-weight="bold" font-size="10.00" fill="#000000">User</text>
<polygon fill="none" stroke="#000000" points="242,-638 242,-660 382,-660 382,-638 242,-638"/>
<text text-anchor="start" x="247" y="-647" font-family="Times,serif" text-decoration="underline" font-size="10.00" fill="#000000">id</text>
<text text-anchor="start" x="254.779" y="-647" font-family="Times,serif" font-size="10.00" fill="#000000">: NUMBER</text>
<polygon fill="none" stroke="#000000" points="242,-616 242,-638 382,-638 382,-616 242,-616"/>
<text text-anchor="start" x="247" y="-624" font-family="Times,serif" font-size="10.00" fill="#000000">names: STRING</text>
<polygon fill="none" stroke="#000000" points="242,-594 242,-616 382,-616 382,-594 242,-594"/>
<text text-anchor="start" x="247" y="-602" font-family="Times,serif" font-size="10.00" fill="#000000">lastnames: STRING</text>
<polygon fill="none" stroke="#000000" points="242,-572 242,-594 382,-594 382,-572 242,-572"/>
<text text-anchor="start" x="247" y="-580" font-family="Times,serif" font-size="10.00" fill="#000000">birthdate: DATE</text>
<polygon fill="none" stroke="#000000" points="242,-550 242,-572 382,-572 382,-550 242,-550"/>
<text text-anchor="start" x="246.8735" y="-558" font-family="Times,serif" font-size="10.00" fill="#000000">idDocumentNumber: NUMBER</text>
<polygon fill="none" stroke="#000000" points="242,-528 242,-550 382,-550 382,-528 242,-528"/>
<text text-anchor="start" x="247" y="-536" font-family="Times,serif" font-size="10.00" fill="#000000">joinDate: DATE</text>
<polygon fill="none" stroke="#000000" points="242,-506 242,-528 382,-528 382,-506 242,-506"/>
<text text-anchor="start" x="247" y="-514" font-family="Times,serif" font-size="10.00" fill="#000000">createdAt: DATE</text>
<polygon fill="none" stroke="#000000" points="242,-484 242,-506 382,-506 382,-484 242,-484"/>
<text text-anchor="start" x="247" y="-492" font-family="Times,serif" font-size="10.00" fill="#000000">ppalPhone: STRING</text>
<polygon fill="none" stroke="#000000" points="242,-462 242,-484 382,-484 382,-462 242,-462"/>
<text text-anchor="start" x="247" y="-470" font-family="Times,serif" font-size="10.00" fill="#000000">email: STRING</text>
<polygon fill="none" stroke="#000000" points="242,-440 242,-462 382,-462 382,-440 242,-440"/>
<text text-anchor="start" x="247" y="-448" font-family="Times,serif" font-size="10.00" fill="#000000">rol: STRING</text>
<polygon fill="none" stroke="#000000" points="242,-418 242,-440 382,-440 382,-418 242,-418"/>
<text text-anchor="start" x="247" y="-426" font-family="Times,serif" font-size="10.00" fill="#000000">capital: NUMBER</text>
<polygon fill="none" stroke="#000000" points="242,-396 242,-418 382,-418 382,-396 242,-396"/>
<text text-anchor="start" x="247" y="-404" font-family="Times,serif" font-size="10.00" fill="#000000">pasive: NUMBER</text>
<polygon fill="none" stroke="#000000" points="242,-374 242,-396 382,-396 382,-374 242,-374"/>
<text text-anchor="start" x="247" y="-382" font-family="Times,serif" font-size="10.00" fill="#000000">capitalFrozen: BOOLEAN</text>
</g>
<!-- Godparent -->
<g id="node9" class="node">
<title>Godparent</title>
<polygon fill="#add8e6" stroke="transparent" points="0,-88 0,-110 96,-110 96,-88 0,-88"/>
<polygon fill="none" stroke="#000000" points="0,-88 0,-110 96,-110 96,-88 0,-88"/>
<text text-anchor="start" x="26.8975" y="-97" font-family="Times,serif" font-weight="bold" font-size="10.00" fill="#000000">Godparent</text>
<polygon fill="none" stroke="#000000" points="0,-66 0,-88 96,-88 96,-66 0,-66"/>
<text text-anchor="start" x="5" y="-75" font-family="Times,serif" text-decoration="underline" font-size="10.00" fill="#000000">id</text>
<text text-anchor="start" x="12.779" y="-75" font-family="Times,serif" font-size="10.00" fill="#000000">: NUMBER</text>
<polygon fill="none" stroke="#000000" points="0,-44 0,-66 96,-66 96,-44 0,-44"/>
<text text-anchor="start" x="4.816" y="-52" font-family="Times,serif" font-size="10.00" fill="#000000">godfather: NUMBER</text>
<polygon fill="none" stroke="#000000" points="0,-22 0,-44 96,-44 96,-22 0,-22"/>
<text text-anchor="start" x="5" y="-30" font-family="Times,serif" font-size="10.00" fill="#000000">godson: NUMBER</text>
<polygon fill="none" stroke="#000000" points="0,0 0,-22 96,-22 96,0 0,0"/>
<text text-anchor="start" x="5" y="-8" font-family="Times,serif" font-size="10.00" fill="#000000">active: NUMBER</text>
</g>
</g>
</svg>
