<?xml version="1.0" encoding="UTF-8" standalone="no"?>
<!DOCTYPE svg PUBLIC "-//W3C//DTD SVG 1.1//EN"
 "http://www.w3.org/Graphics/SVG/1.1/DTD/svg11.dtd">
<!-- Generated by graphviz version 2.40.1 (20161225.0304)
 -->
<!-- Title: models_diagram Pages: 1 -->
<svg width="2874pt" height="3355pt"
 viewBox="0.00 0.00 2873.50 3355.00" xmlns="http://www.w3.org/2000/svg" xmlns:xlink="http://www.w3.org/1999/xlink">
<g id="graph0" class="graph" transform="scale(1 1) rotate(0) translate(36 3319)">
<title>models_diagram</title>
<polygon fill="#ffffff" stroke="transparent" points="-36,36 -36,-3319 2837.5,-3319 2837.5,36 -36,36"/>
<!-- Capital -->
<g id="node1" class="node">
<title>Capital</title>
<polygon fill="#add8e6" stroke="transparent" points=".5,-1333 .5,-1355 119.5,-1355 119.5,-1333 .5,-1333"/>
<polygon fill="none" stroke="#000000" points=".5,-1333 .5,-1355 119.5,-1355 119.5,-1333 .5,-1333"/>
<text text-anchor="start" x="45.558" y="-1342" font-family="Times,serif" font-weight="bold" font-size="10.00" fill="#000000">Capital</text>
<polygon fill="none" stroke="#000000" points=".5,-1311 .5,-1333 119.5,-1333 119.5,-1311 .5,-1311"/>
<text text-anchor="start" x="5.5" y="-1320" font-family="Times,serif" text-decoration="underline" font-size="10.00" fill="#000000">id</text>
<text text-anchor="start" x="13.279" y="-1320" font-family="Times,serif" font-size="10.00" fill="#000000">: NUMBER</text>
<polygon fill="none" stroke="#000000" points=".5,-1289 .5,-1311 119.5,-1311 119.5,-1289 .5,-1289"/>
<text text-anchor="start" x="5.5" y="-1297" font-family="Times,serif" font-size="10.00" fill="#000000">amount: NUMBER</text>
<polygon fill="none" stroke="#000000" points=".5,-1267 .5,-1289 119.5,-1289 119.5,-1267 .5,-1267"/>
<text text-anchor="start" x="5.5" y="-1275" font-family="Times,serif" font-size="10.00" fill="#000000">actualActive: NUMBER</text>
<polygon fill="none" stroke="#000000" points=".5,-1245 .5,-1267 119.5,-1267 119.5,-1245 .5,-1245"/>
<text text-anchor="start" x="5.428" y="-1253" font-family="Times,serif" font-size="10.00" fill="#000000">previousActive: NUMBER</text>
<polygon fill="none" stroke="#000000" points=".5,-1223 .5,-1245 119.5,-1245 119.5,-1223 .5,-1223"/>
<text text-anchor="start" x="5.5" y="-1231" font-family="Times,serif" font-size="10.00" fill="#000000">actualPasive: NUMBER</text>
<polygon fill="none" stroke="#000000" points=".5,-1201 .5,-1223 119.5,-1223 119.5,-1201 .5,-1201"/>
<text text-anchor="start" x="5.5" y="-1209" font-family="Times,serif" font-size="10.00" fill="#000000">previousPasive: NUMBER</text>
<polygon fill="none" stroke="#000000" points=".5,-1179 .5,-1201 119.5,-1201 119.5,-1179 .5,-1179"/>
<text text-anchor="start" x="5.5" y="-1188" font-family="Times,serif" font-style="italic" text-decoration="underline" font-size="10.00" fill="#000000">transactionId</text>
<text text-anchor="start" x="57.701" y="-1188" font-family="Times,serif" font-size="10.00" fill="#000000">: NUMBER</text>
<polygon fill="none" stroke="#000000" points=".5,-1157 .5,-1179 119.5,-1179 119.5,-1157 .5,-1157"/>
<text text-anchor="start" x="5.5" y="-1165" font-family="Times,serif" font-size="10.00" fill="#000000">holder: NUMBER</text>
</g>
<!-- Transaction -->
<g id="node5" class="node">
<title>Transaction</title>
<polygon fill="#add8e6" stroke="transparent" points="2408.5,-1355 2408.5,-1377 2514.5,-1377 2514.5,-1355 2408.5,-1355"/>
<polygon fill="none" stroke="#000000" points="2408.5,-1355 2408.5,-1377 2514.5,-1377 2514.5,-1355 2408.5,-1355"/>
<text text-anchor="start" x="2437.899" y="-1364" font-family="Times,serif" font-weight="bold" font-size="10.00" fill="#000000">Transaction</text>
<polygon fill="none" stroke="#000000" points="2408.5,-1333 2408.5,-1355 2514.5,-1355 2514.5,-1333 2408.5,-1333"/>
<text text-anchor="start" x="2413.5" y="-1342" font-family="Times,serif" text-decoration="underline" font-size="10.00" fill="#000000">id</text>
<text text-anchor="start" x="2421.279" y="-1342" font-family="Times,serif" font-size="10.00" fill="#000000">: NUMBER</text>
<polygon fill="none" stroke="#000000" points="2408.5,-1311 2408.5,-1333 2514.5,-1333 2514.5,-1311 2408.5,-1311"/>
<text text-anchor="start" x="2413.5" y="-1319" font-family="Times,serif" font-size="10.00" fill="#000000">transactionDate: DATE</text>
<polygon fill="none" stroke="#000000" points="2408.5,-1289 2408.5,-1311 2514.5,-1311 2514.5,-1289 2408.5,-1289"/>
<text text-anchor="start" x="2413.324" y="-1297" font-family="Times,serif" font-size="10.00" fill="#000000">registrationDate: DATE</text>
<polygon fill="none" stroke="#000000" points="2408.5,-1267 2408.5,-1289 2514.5,-1289 2514.5,-1267 2408.5,-1267"/>
<text text-anchor="start" x="2413.5" y="-1275" font-family="Times,serif" font-size="10.00" fill="#000000">amount: NUMBER</text>
<polygon fill="none" stroke="#000000" points="2408.5,-1245 2408.5,-1267 2514.5,-1267 2514.5,-1245 2408.5,-1245"/>
<text text-anchor="start" x="2413.5" y="-1253" font-family="Times,serif" font-size="10.00" fill="#000000">issuer: NUMBER</text>
<polygon fill="none" stroke="#000000" points="2408.5,-1223 2408.5,-1245 2514.5,-1245 2514.5,-1223 2408.5,-1223"/>
<text text-anchor="start" x="2413.5" y="-1231" font-family="Times,serif" font-size="10.00" fill="#000000">issuerRol: STRING</text>
<polygon fill="none" stroke="#000000" points="2408.5,-1201 2408.5,-1223 2514.5,-1223 2514.5,-1201 2408.5,-1201"/>
<text text-anchor="start" x="2413.5" y="-1209" font-family="Times,serif" font-size="10.00" fill="#000000">receiver: NUMBER</text>
<polygon fill="none" stroke="#000000" points="2408.5,-1179 2408.5,-1201 2514.5,-1201 2514.5,-1179 2408.5,-1179"/>
<text text-anchor="start" x="2413.5" y="-1187" font-family="Times,serif" font-size="10.00" fill="#000000">status: STRING</text>
<polygon fill="none" stroke="#000000" points="2408.5,-1157 2408.5,-1179 2514.5,-1179 2514.5,-1157 2408.5,-1157"/>
<text text-anchor="start" x="2413.5" y="-1165" font-family="Times,serif" font-size="10.00" fill="#000000">receipt: STRING</text>
<polygon fill="none" stroke="#000000" points="2408.5,-1135 2408.5,-1157 2514.5,-1157 2514.5,-1135 2408.5,-1135"/>
<text text-anchor="start" x="2413.5" y="-1143" font-family="Times,serif" font-size="10.00" fill="#000000">comment: TEXT</text>
</g>
<!-- Capital&#45;&gt;Transaction -->
<g id="edge2" class="edge">
<title>Capital&#45;&gt;Transaction</title>
<path fill="none" stroke="#000000" stroke-width=".75" d="M125.1877,-1256C472.7805,-1256 2093.5319,-1256 2408.4173,-1256"/>
<polygon fill="#000000" stroke="#000000" stroke-width=".75" points="125.1749,-1256.0001 119.1749,-1253.3 122.1749,-1256 119.1749,-1256 119.1749,-1256 119.1749,-1256 122.1749,-1256 119.1749,-1258.7 125.1749,-1256.0001 125.1749,-1256.0001"/>
</g>
<!-- Password -->
<g id="node2" class="node">
<title>Password</title>
<polygon fill="#add8e6" stroke="transparent" points="2122.5,-3173 2122.5,-3195 2217.5,-3195 2217.5,-3173 2122.5,-3173"/>
<polygon fill="none" stroke="#000000" points="2122.5,-3173 2122.5,-3195 2217.5,-3195 2217.5,-3173 2122.5,-3173"/>
<text text-anchor="start" x="2150.838" y="-3182" font-family="Times,serif" font-weight="bold" font-size="10.00" fill="#000000">Password</text>
<polygon fill="none" stroke="#000000" points="2122.5,-3151 2122.5,-3173 2217.5,-3173 2217.5,-3151 2122.5,-3151"/>
<text text-anchor="start" x="2127.5" y="-3160" font-family="Times,serif" text-decoration="underline" font-size="10.00" fill="#000000">id</text>
<text text-anchor="start" x="2135.279" y="-3160" font-family="Times,serif" font-size="10.00" fill="#000000">: NUMBER</text>
<polygon fill="none" stroke="#000000" points="2122.5,-3129 2122.5,-3151 2217.5,-3151 2217.5,-3129 2122.5,-3129"/>
<text text-anchor="start" x="2127.5" y="-3138" font-family="Times,serif" font-style="italic" text-decoration="underline" font-size="10.00" fill="#000000">userId</text>
<text text-anchor="start" x="2152.486" y="-3138" font-family="Times,serif" font-size="10.00" fill="#000000">: NUMBER</text>
<polygon fill="none" stroke="#000000" points="2122.5,-3107 2122.5,-3129 2217.5,-3129 2217.5,-3107 2122.5,-3107"/>
<text text-anchor="start" x="2127.5" y="-3115" font-family="Times,serif" font-size="10.00" fill="#000000">createdAt: DATE</text>
<polygon fill="none" stroke="#000000" points="2122.5,-3085 2122.5,-3107 2217.5,-3107 2217.5,-3085 2122.5,-3085"/>
<text text-anchor="start" x="2127.091" y="-3093" font-family="Times,serif" font-size="10.00" fill="#000000">password: NUMBER</text>
<polygon fill="none" stroke="#000000" points="2122.5,-3063 2122.5,-3085 2217.5,-3085 2217.5,-3063 2122.5,-3063"/>
<text text-anchor="start" x="2127.5" y="-3072" font-family="Times,serif" font-style="italic" text-decoration="underline" font-size="10.00" fill="#000000">UserId</text>
<text text-anchor="start" x="2154.705" y="-3072" font-family="Times,serif" font-size="10.00" fill="#000000">: NUMBER</text>
</g>
<!-- User -->
<g id="node8" class="node">
<title>User</title>
<polygon fill="#add8e6" stroke="transparent" points="2391.5,-3261 2391.5,-3283 2531.5,-3283 2531.5,-3261 2391.5,-3261"/>
<polygon fill="none" stroke="#000000" points="2391.5,-3261 2391.5,-3283 2531.5,-3283 2531.5,-3261 2391.5,-3261"/>
<text text-anchor="start" x="2452.062" y="-3270" font-family="Times,serif" font-weight="bold" font-size="10.00" fill="#000000">User</text>
<polygon fill="none" stroke="#000000" points="2391.5,-3239 2391.5,-3261 2531.5,-3261 2531.5,-3239 2391.5,-3239"/>
<text text-anchor="start" x="2396.5" y="-3248" font-family="Times,serif" text-decoration="underline" font-size="10.00" fill="#000000">id</text>
<text text-anchor="start" x="2404.279" y="-3248" font-family="Times,serif" font-size="10.00" fill="#000000">: NUMBER</text>
<polygon fill="none" stroke="#000000" points="2391.5,-3217 2391.5,-3239 2531.5,-3239 2531.5,-3217 2391.5,-3217"/>
<text text-anchor="start" x="2396.5" y="-3225" font-family="Times,serif" font-size="10.00" fill="#000000">names: STRING</text>
<polygon fill="none" stroke="#000000" points="2391.5,-3195 2391.5,-3217 2531.5,-3217 2531.5,-3195 2391.5,-3195"/>
<text text-anchor="start" x="2396.5" y="-3203" font-family="Times,serif" font-size="10.00" fill="#000000">lastnames: STRING</text>
<polygon fill="none" stroke="#000000" points="2391.5,-3173 2391.5,-3195 2531.5,-3195 2531.5,-3173 2391.5,-3173"/>
<text text-anchor="start" x="2396.5" y="-3181" font-family="Times,serif" font-size="10.00" fill="#000000">birthdate: DATE</text>
<polygon fill="none" stroke="#000000" points="2391.5,-3151 2391.5,-3173 2531.5,-3173 2531.5,-3151 2391.5,-3151"/>
<text text-anchor="start" x="2396.3735" y="-3159" font-family="Times,serif" font-size="10.00" fill="#000000">idDocumentNumber: NUMBER</text>
<polygon fill="none" stroke="#000000" points="2391.5,-3129 2391.5,-3151 2531.5,-3151 2531.5,-3129 2391.5,-3129"/>
<text text-anchor="start" x="2396.5" y="-3137" font-family="Times,serif" font-size="10.00" fill="#000000">joinDate: DATE</text>
<polygon fill="none" stroke="#000000" points="2391.5,-3107 2391.5,-3129 2531.5,-3129 2531.5,-3107 2391.5,-3107"/>
<text text-anchor="start" x="2396.5" y="-3115" font-family="Times,serif" font-size="10.00" fill="#000000">createdAt: DATE</text>
<polygon fill="none" stroke="#000000" points="2391.5,-3085 2391.5,-3107 2531.5,-3107 2531.5,-3085 2391.5,-3085"/>
<text text-anchor="start" x="2396.5" y="-3093" font-family="Times,serif" font-size="10.00" fill="#000000">ppalPhone: STRING</text>
<polygon fill="none" stroke="#000000" points="2391.5,-3063 2391.5,-3085 2531.5,-3085 2531.5,-3063 2391.5,-3063"/>
<text text-anchor="start" x="2396.5" y="-3071" font-family="Times,serif" font-size="10.00" fill="#000000">email: STRING</text>
<polygon fill="none" stroke="#000000" points="2391.5,-3041 2391.5,-3063 2531.5,-3063 2531.5,-3041 2391.5,-3041"/>
<text text-anchor="start" x="2396.5" y="-3049" font-family="Times,serif" font-size="10.00" fill="#000000">rol: STRING</text>
<polygon fill="none" stroke="#000000" points="2391.5,-3019 2391.5,-3041 2531.5,-3041 2531.5,-3019 2391.5,-3019"/>
<text text-anchor="start" x="2396.5" y="-3027" font-family="Times,serif" font-size="10.00" fill="#000000">capital: NUMBER</text>
<polygon fill="none" stroke="#000000" points="2391.5,-2997 2391.5,-3019 2531.5,-3019 2531.5,-2997 2391.5,-2997"/>
<text text-anchor="start" x="2396.5" y="-3005" font-family="Times,serif" font-size="10.00" fill="#000000">pasive: NUMBER</text>
<polygon fill="none" stroke="#000000" points="2391.5,-2975 2391.5,-2997 2531.5,-2997 2531.5,-2975 2391.5,-2975"/>
<text text-anchor="start" x="2396.5" y="-2983" font-family="Times,serif" font-size="10.00" fill="#000000">capitalFrozen: BOOLEAN</text>
</g>
<!-- Password&#45;&gt;User -->
<g id="edge3" class="edge">
<title>Password&#45;&gt;User</title>
<path fill="none" stroke="#000000" stroke-width=".75" d="M2223.2972,-3129C2270.5755,-3129 2339.6887,-3129 2391.307,-3129"/>
<polygon fill="#000000" stroke="#000000" stroke-width=".75" points="2223.0647,-3129.0001 2217.0648,-3126.3 2220.0647,-3129 2217.0647,-3129 2217.0647,-3129 2217.0647,-3129 2220.0647,-3129 2217.0647,-3131.7 2223.0647,-3129.0001 2223.0647,-3129.0001"/>
</g>
<!-- Loan -->
<g id="node3" class="node">
<title>Loan</title>
<polygon fill="#add8e6" stroke="transparent" points="2395.5,-2363 2395.5,-2385 2528.5,-2385 2528.5,-2363 2395.5,-2363"/>
<polygon fill="none" stroke="#000000" points="2395.5,-2363 2395.5,-2385 2528.5,-2385 2528.5,-2363 2395.5,-2363"/>
<text text-anchor="start" x="2451.726" y="-2372" font-family="Times,serif" font-weight="bold" font-size="10.00" fill="#000000">Loan</text>
<polygon fill="none" stroke="#000000" points="2395.5,-2341 2395.5,-2363 2528.5,-2363 2528.5,-2341 2395.5,-2341"/>
<text text-anchor="start" x="2400.5" y="-2350" font-family="Times,serif" text-decoration="underline" font-size="10.00" fill="#000000">id</text>
<text text-anchor="start" x="2408.279" y="-2350" font-family="Times,serif" font-size="10.00" fill="#000000">: NUMBER</text>
<polygon fill="none" stroke="#000000" points="2395.5,-2319 2395.5,-2341 2528.5,-2341 2528.5,-2319 2395.5,-2319"/>
<text text-anchor="start" x="2400.5" y="-2327" font-family="Times,serif" font-size="10.00" fill="#000000">type: NUMBER</text>
<polygon fill="none" stroke="#000000" points="2395.5,-2297 2395.5,-2319 2528.5,-2319 2528.5,-2297 2395.5,-2297"/>
<text text-anchor="start" x="2400.5" y="-2305" font-family="Times,serif" font-size="10.00" fill="#000000">initialDate: DATE</text>
<polygon fill="none" stroke="#000000" points="2395.5,-2275 2395.5,-2297 2528.5,-2297 2528.5,-2275 2395.5,-2275"/>
<text text-anchor="start" x="2400.5" y="-2283" font-family="Times,serif" font-size="10.00" fill="#000000">initialMonth: ENUM</text>
<polygon fill="none" stroke="#000000" points="2395.5,-2253 2395.5,-2275 2528.5,-2275 2528.5,-2253 2395.5,-2253"/>
<text text-anchor="start" x="2400.4805" y="-2261" font-family="Times,serif" font-size="10.00" fill="#000000">instalmentsInTotal: NUMBER</text>
<polygon fill="none" stroke="#000000" points="2395.5,-2231 2395.5,-2253 2528.5,-2253 2528.5,-2231 2395.5,-2231"/>
<text text-anchor="start" x="2400.5" y="-2239" font-family="Times,serif" font-size="10.00" fill="#000000">payedInstalments: NUMBER</text>
<polygon fill="none" stroke="#000000" points="2395.5,-2209 2395.5,-2231 2528.5,-2231 2528.5,-2209 2395.5,-2209"/>
<text text-anchor="start" x="2400.5" y="-2218" font-family="Times,serif" font-style="italic" text-decoration="underline" font-size="10.00" fill="#000000">debtorId</text>
<text text-anchor="start" x="2434.376" y="-2218" font-family="Times,serif" font-size="10.00" fill="#000000">: NUMBER</text>
<polygon fill="none" stroke="#000000" points="2395.5,-2187 2395.5,-2209 2528.5,-2209 2528.5,-2187 2395.5,-2187"/>
<text text-anchor="start" x="2400.5" y="-2195" font-family="Times,serif" font-size="10.00" fill="#000000">status: NUMBER</text>
<polygon fill="none" stroke="#000000" points="2395.5,-2165 2395.5,-2187 2528.5,-2187 2528.5,-2165 2395.5,-2165"/>
<text text-anchor="start" x="2400.5" y="-2173" font-family="Times,serif" font-size="10.00" fill="#000000">amount: NUMBER</text>
<polygon fill="none" stroke="#000000" points="2395.5,-2143 2395.5,-2165 2528.5,-2165 2528.5,-2143 2395.5,-2143"/>
<text text-anchor="start" x="2400.5" y="-2151" font-family="Times,serif" font-size="10.00" fill="#000000">registerDate: DATE</text>
<polygon fill="none" stroke="#000000" points="2395.5,-2121 2395.5,-2143 2528.5,-2143 2528.5,-2121 2395.5,-2121"/>
<text text-anchor="start" x="2400.5" y="-2129" font-family="Times,serif" font-size="10.00" fill="#000000">last_update: DATE</text>
<polygon fill="none" stroke="#000000" points="2395.5,-2099 2395.5,-2121 2528.5,-2121 2528.5,-2099 2395.5,-2099"/>
<text text-anchor="start" x="2400.5" y="-2107" font-family="Times,serif" font-size="10.00" fill="#000000">payed: NUMBER</text>
</g>
<!-- Instalment -->
<g id="node10" class="node">
<title>Instalment</title>
<polygon fill="#add8e6" stroke="transparent" points="2395.5,-2005 2395.5,-2027 2527.5,-2027 2527.5,-2005 2395.5,-2005"/>
<polygon fill="none" stroke="#000000" points="2395.5,-2005 2395.5,-2027 2527.5,-2027 2527.5,-2005 2395.5,-2005"/>
<text text-anchor="start" x="2440.394" y="-2014" font-family="Times,serif" font-weight="bold" font-size="10.00" fill="#000000">Instalment</text>
<polygon fill="none" stroke="#000000" points="2395.5,-1983 2395.5,-2005 2527.5,-2005 2527.5,-1983 2395.5,-1983"/>
<text text-anchor="start" x="2400.5" y="-1992" font-family="Times,serif" text-decoration="underline" font-size="10.00" fill="#000000">id</text>
<text text-anchor="start" x="2408.279" y="-1992" font-family="Times,serif" font-size="10.00" fill="#000000">: NUMBER</text>
<polygon fill="none" stroke="#000000" points="2395.5,-1961 2395.5,-1983 2527.5,-1983 2527.5,-1961 2395.5,-1961"/>
<text text-anchor="start" x="2400.5" y="-1970" font-family="Times,serif" font-style="italic" text-decoration="underline" font-size="10.00" fill="#000000">loanId</text>
<text text-anchor="start" x="2426.047" y="-1970" font-family="Times,serif" font-size="10.00" fill="#000000">: NUMBER</text>
<polygon fill="none" stroke="#000000" points="2395.5,-1939 2395.5,-1961 2527.5,-1961 2527.5,-1939 2395.5,-1939"/>
<text text-anchor="start" x="2400.2595" y="-1947" font-family="Times,serif" font-size="10.00" fill="#000000">instalmentNumber: NUMBER</text>
<polygon fill="none" stroke="#000000" points="2395.5,-1917 2395.5,-1939 2527.5,-1939 2527.5,-1917 2395.5,-1917"/>
<text text-anchor="start" x="2400.5" y="-1925" font-family="Times,serif" font-size="10.00" fill="#000000">futureDebt: NUMBER</text>
<polygon fill="none" stroke="#000000" points="2395.5,-1895 2395.5,-1917 2527.5,-1917 2527.5,-1895 2395.5,-1895"/>
<text text-anchor="start" x="2400.5" y="-1903" font-family="Times,serif" font-size="10.00" fill="#000000">validFrom: DATE</text>
<polygon fill="none" stroke="#000000" points="2395.5,-1873 2395.5,-1895 2527.5,-1895 2527.5,-1873 2395.5,-1873"/>
<text text-anchor="start" x="2400.5" y="-1881" font-family="Times,serif" font-size="10.00" fill="#000000">validTill: DATE</text>
<polygon fill="none" stroke="#000000" points="2395.5,-1851 2395.5,-1873 2527.5,-1873 2527.5,-1851 2395.5,-1851"/>
<text text-anchor="start" x="2400.5" y="-1859" font-family="Times,serif" font-size="10.00" fill="#000000">amount: NUMBER</text>
<polygon fill="none" stroke="#000000" points="2395.5,-1829 2395.5,-1851 2527.5,-1851 2527.5,-1829 2395.5,-1829"/>
<text text-anchor="start" x="2400.5" y="-1837" font-family="Times,serif" font-size="10.00" fill="#000000">interest: NUMBER</text>
<polygon fill="none" stroke="#000000" points="2395.5,-1807 2395.5,-1829 2527.5,-1829 2527.5,-1807 2395.5,-1807"/>
<text text-anchor="start" x="2400.5" y="-1815" font-family="Times,serif" font-size="10.00" fill="#000000">penalty: NUMBER</text>
<polygon fill="none" stroke="#000000" points="2395.5,-1785 2395.5,-1807 2527.5,-1807 2527.5,-1785 2395.5,-1785"/>
<text text-anchor="start" x="2400.5" y="-1793" font-family="Times,serif" font-size="10.00" fill="#000000">payedAmount: NUMBER</text>
<polygon fill="none" stroke="#000000" points="2395.5,-1763 2395.5,-1785 2527.5,-1785 2527.5,-1763 2395.5,-1763"/>
<text text-anchor="start" x="2400.5" y="-1771" font-family="Times,serif" font-size="10.00" fill="#000000">inDebt: NUMBER</text>
<polygon fill="none" stroke="#000000" points="2395.5,-1741 2395.5,-1763 2527.5,-1763 2527.5,-1741 2395.5,-1741"/>
<text text-anchor="start" x="2400.5" y="-1749" font-family="Times,serif" font-size="10.00" fill="#000000">paymentDate: DATE</text>
<polygon fill="none" stroke="#000000" points="2395.5,-1719 2395.5,-1741 2527.5,-1741 2527.5,-1719 2395.5,-1719"/>
<text text-anchor="start" x="2400.5" y="-1727" font-family="Times,serif" font-size="10.00" fill="#000000">status: STRING</text>
<polygon fill="none" stroke="#000000" points="2395.5,-1697 2395.5,-1719 2527.5,-1719 2527.5,-1697 2395.5,-1697"/>
<text text-anchor="start" x="2400.5" y="-1706" font-family="Times,serif" font-style="italic" text-decoration="underline" font-size="10.00" fill="#000000">transactionId</text>
<text text-anchor="start" x="2452.701" y="-1706" font-family="Times,serif" font-size="10.00" fill="#000000">: NUMBER</text>
</g>
<!-- Loan&#45;&gt;Instalment -->
<g id="edge9" class="edge">
<title>Loan&#45;&gt;Instalment</title>
<path fill="none" stroke="#000000" stroke-width=".75" d="M2461.5,-2098.8798C2461.5,-2077.4375 2461.5,-2055.1455 2461.5,-2033.1918"/>
<polygon fill="#000000" stroke="#000000" stroke-width=".75" points="2461.5001,-2033.0097 2464.2,-2027.0097 2461.5,-2030.0097 2461.5,-2027.0097 2461.5,-2027.0097 2461.5,-2027.0097 2461.5,-2030.0097 2458.8,-2027.0098 2461.5001,-2033.0097 2461.5001,-2033.0097"/>
</g>
<!-- CosignerRel -->
<g id="node4" class="node">
<title>CosignerRel</title>
<polygon fill="#add8e6" stroke="transparent" points="2394.5,-2677 2394.5,-2699 2528.5,-2699 2528.5,-2677 2394.5,-2677"/>
<polygon fill="none" stroke="#000000" points="2394.5,-2677 2394.5,-2699 2528.5,-2699 2528.5,-2677 2394.5,-2677"/>
<text text-anchor="start" x="2436.504" y="-2686" font-family="Times,serif" font-weight="bold" font-size="10.00" fill="#000000">CosignerRel</text>
<polygon fill="none" stroke="#000000" points="2394.5,-2655 2394.5,-2677 2528.5,-2677 2528.5,-2655 2394.5,-2655"/>
<text text-anchor="start" x="2399.5" y="-2664" font-family="Times,serif" text-decoration="underline" font-size="10.00" fill="#000000">id</text>
<text text-anchor="start" x="2407.279" y="-2664" font-family="Times,serif" font-size="10.00" fill="#000000">: NUMBER</text>
<polygon fill="none" stroke="#000000" points="2394.5,-2633 2394.5,-2655 2528.5,-2655 2528.5,-2633 2394.5,-2633"/>
<text text-anchor="start" x="2399.5" y="-2642" font-family="Times,serif" font-style="italic" text-decoration="underline" font-size="10.00" fill="#000000">loanId</text>
<text text-anchor="start" x="2425.047" y="-2642" font-family="Times,serif" font-size="10.00" fill="#000000">: NUMBER</text>
<polygon fill="none" stroke="#000000" points="2394.5,-2611 2394.5,-2633 2528.5,-2633 2528.5,-2611 2394.5,-2611"/>
<text text-anchor="start" x="2399.5" y="-2620" font-family="Times,serif" font-style="italic" text-decoration="underline" font-size="10.00" fill="#000000">cosignerId</text>
<text text-anchor="start" x="2441.704" y="-2620" font-family="Times,serif" font-size="10.00" fill="#000000">: NUMBER</text>
<polygon fill="none" stroke="#000000" points="2394.5,-2589 2394.5,-2611 2528.5,-2611 2528.5,-2589 2394.5,-2589"/>
<text text-anchor="start" x="2399.153" y="-2597" font-family="Times,serif" font-size="10.00" fill="#000000">guaranteedAmount: NUMBER</text>
<polygon fill="none" stroke="#000000" points="2394.5,-2567 2394.5,-2589 2528.5,-2589 2528.5,-2567 2394.5,-2567"/>
<text text-anchor="start" x="2399.5" y="-2575" font-family="Times,serif" font-size="10.00" fill="#000000">guaranteedPayed: NUMBER</text>
<polygon fill="none" stroke="#000000" points="2394.5,-2545 2394.5,-2567 2528.5,-2567 2528.5,-2545 2394.5,-2545"/>
<text text-anchor="start" x="2399.5" y="-2553" font-family="Times,serif" font-size="10.00" fill="#000000">index: NUMBER</text>
<polygon fill="none" stroke="#000000" points="2394.5,-2523 2394.5,-2545 2528.5,-2545 2528.5,-2523 2394.5,-2523"/>
<text text-anchor="start" x="2399.5" y="-2531" font-family="Times,serif" font-size="10.00" fill="#000000">status: NUMBER</text>
<polygon fill="none" stroke="#000000" points="2394.5,-2501 2394.5,-2523 2528.5,-2523 2528.5,-2501 2394.5,-2501"/>
<text text-anchor="start" x="2399.5" y="-2509" font-family="Times,serif" font-size="10.00" fill="#000000">lastUpdate: DATE</text>
<polygon fill="none" stroke="#000000" points="2394.5,-2479 2394.5,-2501 2528.5,-2501 2528.5,-2479 2394.5,-2479"/>
<text text-anchor="start" x="2399.5" y="-2487" font-family="Times,serif" font-size="10.00" fill="#000000">rol: NUMBER</text>
<polygon fill="none" stroke="#000000" points="2394.5,-2457 2394.5,-2479 2528.5,-2479 2528.5,-2457 2394.5,-2457"/>
<text text-anchor="start" x="2399.5" y="-2466" font-family="Times,serif" font-style="italic" text-decoration="underline" font-size="10.00" fill="#000000">userId</text>
<text text-anchor="start" x="2424.486" y="-2466" font-family="Times,serif" font-size="10.00" fill="#000000">: NUMBER</text>
</g>
<!-- CosignerRel&#45;&gt;Loan -->
<g id="edge5" class="edge">
<title>CosignerRel&#45;&gt;Loan</title>
<path fill="none" stroke="#000000" stroke-width=".75" d="M2461.5,-2450.6838C2461.5,-2429.2743 2461.5,-2406.9268 2461.5,-2385.149"/>
<polygon fill="#000000" stroke="#000000" stroke-width=".75" points="2461.5001,-2450.6963 2458.8,-2456.6962 2461.5,-2453.6963 2461.5,-2456.6963 2461.5,-2456.6963 2461.5,-2456.6963 2461.5,-2453.6963 2464.2,-2456.6963 2461.5001,-2450.6963 2461.5001,-2450.6963"/>
</g>
<!-- CosignerRel&#45;&gt;User -->
<g id="edge4" class="edge">
<title>CosignerRel&#45;&gt;User</title>
<path fill="none" stroke="#000000" stroke-width=".75" d="M2461.5,-2705.489C2461.5,-2785.8178 2461.5,-2890.0231 2461.5,-2974.9664"/>
<polygon fill="#000000" stroke="#000000" stroke-width=".75" points="2461.5001,-2705.2602 2464.2,-2699.2601 2461.5,-2702.2602 2461.5,-2699.2602 2461.5,-2699.2602 2461.5,-2699.2602 2461.5,-2702.2602 2458.8,-2699.2602 2461.5001,-2705.2602 2461.5001,-2705.2602"/>
</g>
<!-- TransSubscription -->
<g id="node6" class="node">
<title>TransSubscription</title>
<polygon fill="#add8e6" stroke="transparent" points="2406.5,-66 2406.5,-88 2516.5,-88 2516.5,-66 2406.5,-66"/>
<polygon fill="none" stroke="#000000" points="2406.5,-66 2406.5,-88 2516.5,-88 2516.5,-66 2406.5,-66"/>
<text text-anchor="start" x="2424.8405" y="-75" font-family="Times,serif" font-weight="bold" font-size="10.00" fill="#000000">TransSubscription</text>
<polygon fill="none" stroke="#000000" points="2406.5,-44 2406.5,-66 2516.5,-66 2516.5,-44 2406.5,-44"/>
<text text-anchor="start" x="2411.5" y="-53" font-family="Times,serif" text-decoration="underline" font-size="10.00" fill="#000000">id</text>
<text text-anchor="start" x="2419.279" y="-53" font-family="Times,serif" font-size="10.00" fill="#000000">: NUMBER</text>
<polygon fill="none" stroke="#000000" points="2406.5,-22 2406.5,-44 2516.5,-44 2516.5,-22 2406.5,-22"/>
<text text-anchor="start" x="2411.373" y="-31" font-family="Times,serif" font-style="italic" text-decoration="underline" font-size="10.00" fill="#000000">transactionId</text>
<text text-anchor="start" x="2463.574" y="-31" font-family="Times,serif" font-size="10.00" fill="#000000">: NUMBER</text>
<polygon fill="none" stroke="#000000" points="2406.5,0 2406.5,-22 2516.5,-22 2516.5,0 2406.5,0"/>
<text text-anchor="start" x="2411.5" y="-8" font-family="Times,serif" font-size="10.00" fill="#000000">amount: NUMBER</text>
</g>
<!-- TransSubscription&#45;&gt;Transaction -->
<g id="edge6" class="edge">
<title>TransSubscription&#45;&gt;Transaction</title>
<path fill="none" stroke="#000000" stroke-width=".75" d="M2461.5,-88.2118C2461.5,-257.9724 2461.5,-871.6245 2461.5,-1134.788"/>
</g>
<!-- TransInstalment -->
<g id="node7" class="node">
<title>TransInstalment</title>
<polygon fill="#add8e6" stroke="transparent" points="2406.5,-1603 2406.5,-1625 2516.5,-1625 2516.5,-1603 2406.5,-1603"/>
<polygon fill="none" stroke="#000000" points="2406.5,-1603 2406.5,-1625 2516.5,-1625 2516.5,-1603 2406.5,-1603"/>
<text text-anchor="start" x="2429.011" y="-1612" font-family="Times,serif" font-weight="bold" font-size="10.00" fill="#000000">TransInstalment</text>
<polygon fill="none" stroke="#000000" points="2406.5,-1581 2406.5,-1603 2516.5,-1603 2516.5,-1581 2406.5,-1581"/>
<text text-anchor="start" x="2411.5" y="-1590" font-family="Times,serif" text-decoration="underline" font-size="10.00" fill="#000000">id</text>
<text text-anchor="start" x="2419.279" y="-1590" font-family="Times,serif" font-size="10.00" fill="#000000">: NUMBER</text>
<polygon fill="none" stroke="#000000" points="2406.5,-1559 2406.5,-1581 2516.5,-1581 2516.5,-1559 2406.5,-1559"/>
<text text-anchor="start" x="2411.373" y="-1568" font-family="Times,serif" font-style="italic" text-decoration="underline" font-size="10.00" fill="#000000">transactionId</text>
<text text-anchor="start" x="2463.574" y="-1568" font-family="Times,serif" font-size="10.00" fill="#000000">: NUMBER</text>
<polygon fill="none" stroke="#000000" points="2406.5,-1537 2406.5,-1559 2516.5,-1559 2516.5,-1537 2406.5,-1537"/>
<text text-anchor="start" x="2411.5" y="-1546" font-family="Times,serif" font-style="italic" text-decoration="underline" font-size="10.00" fill="#000000">instalmentId</text>
<text text-anchor="start" x="2461.491" y="-1546" font-family="Times,serif" font-size="10.00" fill="#000000">: NUMBER</text>
<polygon fill="none" stroke="#000000" points="2406.5,-1515 2406.5,-1537 2516.5,-1537 2516.5,-1515 2406.5,-1515"/>
<text text-anchor="start" x="2411.5" y="-1523" font-family="Times,serif" font-size="10.00" fill="#000000">totalAmount: NUMBER</text>
<polygon fill="none" stroke="#000000" points="2406.5,-1493 2406.5,-1515 2516.5,-1515 2516.5,-1493 2406.5,-1493"/>
<text text-anchor="start" x="2411.5" y="-1501" font-family="Times,serif" font-size="10.00" fill="#000000">amount: NUMBER</text>
<polygon fill="none" stroke="#000000" points="2406.5,-1471 2406.5,-1493 2516.5,-1493 2516.5,-1471 2406.5,-1471"/>
<text text-anchor="start" x="2411.5" y="-1479" font-family="Times,serif" font-size="10.00" fill="#000000">interest: NUMBER</text>
<polygon fill="none" stroke="#000000" points="2406.5,-1449 2406.5,-1471 2516.5,-1471 2516.5,-1449 2406.5,-1449"/>
<text text-anchor="start" x="2411.5" y="-1457" font-family="Times,serif" font-size="10.00" fill="#000000">penalty: NUMBER</text>
</g>
<!-- TransInstalment&#45;&gt;Transaction -->
<g id="edge8" class="edge">
<title>TransInstalment&#45;&gt;Transaction</title>
<path fill="none" stroke="#000000" stroke-width=".75" d="M2461.5,-1448.8608C2461.5,-1426.0859 2461.5,-1401.169 2461.5,-1377.0336"/>
</g>
<!-- TransInstalment&#45;&gt;Instalment -->
<g id="edge7" class="edge">
<title>TransInstalment&#45;&gt;Instalment</title>
<path fill="none" stroke="#000000" stroke-width=".75" d="M2461.5,-1625.3784C2461.5,-1647.5584 2461.5,-1672.0832 2461.5,-1696.6939"/>
</g>
<!-- Godparent -->
<g id="node9" class="node">
<title>Godparent</title>
<polygon fill="#add8e6" stroke="transparent" points="2705.5,-3162 2705.5,-3184 2801.5,-3184 2801.5,-3162 2705.5,-3162"/>
<polygon fill="none" stroke="#000000" points="2705.5,-3162 2705.5,-3184 2801.5,-3184 2801.5,-3162 2705.5,-3162"/>
<text text-anchor="start" x="2732.3975" y="-3171" font-family="Times,serif" font-weight="bold" font-size="10.00" fill="#000000">Godparent</text>
<polygon fill="none" stroke="#000000" points="2705.5,-3140 2705.5,-3162 2801.5,-3162 2801.5,-3140 2705.5,-3140"/>
<text text-anchor="start" x="2710.5" y="-3149" font-family="Times,serif" text-decoration="underline" font-size="10.00" fill="#000000">id</text>
<text text-anchor="start" x="2718.279" y="-3149" font-family="Times,serif" font-size="10.00" fill="#000000">: NUMBER</text>
<polygon fill="none" stroke="#000000" points="2705.5,-3118 2705.5,-3140 2801.5,-3140 2801.5,-3118 2705.5,-3118"/>
<text text-anchor="start" x="2710.316" y="-3127" font-family="Times,serif" font-style="italic" text-decoration="underline" font-size="10.00" fill="#000000">godfather</text>
<text text-anchor="start" x="2748.631" y="-3127" font-family="Times,serif" font-size="10.00" fill="#000000">: NUMBER</text>
<polygon fill="none" stroke="#000000" points="2705.5,-3096 2705.5,-3118 2801.5,-3118 2801.5,-3096 2705.5,-3096"/>
<text text-anchor="start" x="2710.5" y="-3105" font-family="Times,serif" font-style="italic" text-decoration="underline" font-size="10.00" fill="#000000">godson</text>
<text text-anchor="start" x="2739.389" y="-3105" font-family="Times,serif" font-size="10.00" fill="#000000">: NUMBER</text>
<polygon fill="none" stroke="#000000" points="2705.5,-3074 2705.5,-3096 2801.5,-3096 2801.5,-3074 2705.5,-3074"/>
<text text-anchor="start" x="2710.5" y="-3082" font-family="Times,serif" font-size="10.00" fill="#000000">active: NUMBER</text>
</g>
<!-- User&#45;&gt;Godparent -->
<g id="edge1" class="edge">
<title>User&#45;&gt;Godparent</title>
<path fill="none" stroke="#000000" stroke-width=".75" d="M2531.8129,-3129C2583.171,-3129 2651.8002,-3129 2699.0226,-3129"/>
<polygon fill="#000000" stroke="#000000" stroke-width=".75" points="2699.2502,-3129.0001 2705.2502,-3131.7 2702.2502,-3129 2705.2502,-3129 2705.2502,-3129 2705.2502,-3129 2702.2502,-3129 2705.2501,-3126.3 2699.2502,-3129.0001 2699.2502,-3129.0001"/>
</g>
</g>
</svg>
